/* XPM */
static char *arch_25[] = {
/* columns rows colors chars-per-pixel */
"25 25 2 1 ",
"  c None",
". c #1793D1",
/* pixels */
"                         ",
"            .            ",
"            .            ",
"           ...           ",
"           ...           ",
"          .....          ",
"          .....          ",
"          ......         ",
"         . .....         ",
"        .........        ",
"        .........        ",
"       ...........       ",
"       ...........       ",
"      .............      ",
"      ...... ......      ",
"     ......   ......     ",
"     .....     .....     ",
"    ......     ......    ",
"    ......      .....    ",
"   .......      .....    ",
"   .......      ......   ",
"  .....           .....  ",
" ...                 ... ",
" ..                   .. ",
"                         "
};
